<?xml version="1.0" encoding="UTF-8"?><svg id="Layer_1" xmlns="http://www.w3.org/2000/svg" viewBox="0 0 104.99 104.99"><defs><style>.cls-1{fill:#fff;stroke:#fff;stroke-width:.25px;}.cls-1,.cls-2{stroke-miterlimit:10;}.cls-2{stroke:#39b54a;}.cls-2,.cls-3{fill:#39b54a;}.cls-3{stroke-width:0px;}</style></defs><circle class="cls-2" cx="52.5" cy="52.5" r="52"/><path class="cls-1" d="m33,53.74s-4.48-4.76-8.96-1.26c-4.48,3.51-.9,7.99-.9,7.99,7.47,6.58,14.93,13.14,22.41,19.72,12.1-15.46,24.2-30.92,36.3-46.38.38-.45,1.32-1.71,1.4-3.52.14-3.25-2.62-5.14-2.75-5.22-2.21-1.46-5.27-1.35-6.5-.15,0,0-.05.05-1.34,1.51l-28.45,38.54-11.2-11.21h-.01Z"/><path class="cls-3" d="m64.26,22.7c3.72,0,3.72-5.78,0-5.78s-3.72,5.78,0,5.78h0Z"/><path class="cls-3" d="m90.2,43.32c3.72,0,3.72-5.78,0-5.78s-3.72,5.78,0,5.78h0Z"/></svg>