<?xml version="1.0" encoding="UTF-8"?><svg id="Layer_1" xmlns="http://www.w3.org/2000/svg" viewBox="0 0 90.97 90.97"><defs><style>.cls-1{fill:#fff;stroke:#fff;stroke-width:.25px;}.cls-1,.cls-2{stroke-miterlimit:10;}.cls-2{stroke:#ed1c24;}.cls-2,.cls-3{fill:#ed1c24;}.cls-3{stroke-width:0px;}</style></defs><circle class="cls-2" cx="45.49" cy="45.49" r="44.99"/><path class="cls-1" d="m23.03,61.03c-.09.26-.89,2.83.69,4.95,1.4,1.89,4.09,2.63,6.55,1.7,19.72-19.37,33.92-33.58,36.28-35.78.37-.35,1.32-1.32,1.59-2.87.29-1.67-.41-3.56-1.78-4.79-.32-.29-1.79-1.53-3.69-1.37-1.62.14-2.76,1.24-3.19,1.67-2.19,2.17-16.65,16.58-36.46,36.49Z"/><path class="cls-1" d="m61.05,67.93c.26.09,2.83.89,4.95-.69,1.89-1.4,2.63-4.09,1.7-6.55C48.34,40.97,34.13,26.78,31.92,24.41c-.35-.37-1.32-1.32-2.87-1.59-1.67-.29-3.56.41-4.79,1.78-.29.32-1.53,1.79-1.37,3.69.14,1.62,1.24,2.76,1.67,3.19,2.17,2.19,16.58,16.65,36.49,36.46Z"/><path class="cls-3" d="m55.67,19.71c3.22,0,3.22-5,0-5s-3.22,5,0,5h0Z"/><path class="cls-3" d="m78.11,37.55c3.22,0,3.22-5,0-5s-3.22,5,0,5h0Z"/></svg>